# Blender 5.1.1
# www.blender.org
mtllib red-square.mtl
o building-office-small_Cube.001
v -4.000001 8.283056 3.999995
v -3.999995 8.283056 -4.000001
v 4.000000 8.283056 -3.999996
v 3.999997 8.283056 3.999999
vn -0.0000 1.0000 -0.0000
vn -0.0000 -1.0000 -0.0000
vt 0.176623 0.886139
vt 0.176623 0.564284
vt 0.391191 0.564285
vt 0.391191 0.886139
vt 0.648438 0.609375
vt 0.648438 0.902344
vt 0.867188 0.902344
vt 0.875000 0.609375
s 0
usemtl basecolors.001
f 1/1/1 4/2/1 3/3/1
f 2/4/1 1/1/1 3/3/1
f 2/5/2 3/6/2 4/7/2 1/8/2
